<svg xmlns="http://www.w3.org/2000/svg" viewBox="0 0 251.86 340.16"><defs><style>.cls-1{fill:#26a6df;}.cls-2{fill:#dadada;}.cls-2,.cls-3{opacity:0.25;}.cls-3{fill:#575756;}.cls-4{fill:#f6f6f6;opacity:0.6;}</style></defs><g id="Layer_2" data-name="Layer 2"><g id="Layer_1-2" data-name="Layer 1"><path class="cls-1" d="M236.53,255.12,234,297.64,232,330.08a10,10,0,0,1-10,10.08H29.84a10,10,0,0,1-10-10.08l-1.95-32.44-2.56-42.52Z"/><path class="cls-2" d="M251.86,0,236.53,255.12,234,297.64,232,330.08a10,10,0,0,1-10,10.08H29.84a10,10,0,0,1-10-10.08l-1.95-32.44-2.56-42.52L0,0Z"/><path class="cls-3" d="M251.86,0,236.53,255.12,234,297.64,232,330.08a10,10,0,0,1-10,10.08H163c4.71-13.29,9.35-27.47,13.75-42.52,3.95-13.49,7.72-27.67,11.19-42.52,4.22-18.06,8-37.1,11.16-57.08C209.8,129.94,219.9,56.34,221,0Z"/><ellipse class="cls-4" cx="31.41" cy="121.95" rx="9.74" ry="103.04"/></g></g></svg>