<svg xmlns="http://www.w3.org/2000/svg" viewBox="0 0 251.86 340.16"><defs><style>.cls-1{fill:#26a6df;}.cls-2{fill:#dadada;}.cls-2,.cls-3{opacity:0.25;}.cls-3{fill:#575756;}.cls-4{fill:#f6f6f6;opacity:0.6;}</style></defs><g id="Layer_2" data-name="Layer 2"><g id="Layer_1-2" data-name="Layer 1"><path class="cls-1" d="M239,214.06l-5,83.58L232,330.08a10,10,0,0,1-10,10.08H29.84a10,10,0,0,1-10-10.08l-1.95-32.44-5-83.58Z"/><path class="cls-2" d="M251.86,0,239,214.06l-5,83.58L232,330.08a10,10,0,0,1-10,10.08H29.84a10,10,0,0,1-10-10.08l-1.95-32.44-5-83.58L0,0Z"/><path class="cls-3" d="M251.86,0,239,214.06l-5,83.58L232,330.08a10,10,0,0,1-10,10.08H163c4.71-13.29,9.35-27.47,13.75-42.52a792.24,792.24,0,0,0,19.65-83.58q1.42-7.91,2.7-16C209.8,129.94,219.9,56.34,221,0Z"/><ellipse class="cls-4" cx="31.41" cy="121.95" rx="9.74" ry="103.04"/></g></g></svg>