<svg xmlns="http://www.w3.org/2000/svg" viewBox="0 0 251.86 340.16"><defs><style>.cls-1{fill:#26a6df;}.cls-2{fill:#dadada;}.cls-2,.cls-3{opacity:0.25;}.cls-3{fill:#575756;}.cls-4{fill:#f6f6f6;opacity:0.6;}</style></defs><g id="Layer_2" data-name="Layer 2"><g id="Layer_1-2" data-name="Layer 1"><path class="cls-1" d="M251.43,7.08,234,297.64,232,330.08v.21c0,.1,0,.21,0,.31s0,.41,0,.61l0,.21a9.81,9.81,0,0,1-5.14,7.52l-.16.08-.28.14-.14.06a1.67,1.67,0,0,1-.23.12l-.15.06-.2.08c-.21.09-.42.16-.64.23l-.47.13L224,340l-.49.08-.5.07c-.33,0-.67.05-1,.05H29.84c-.35,0-.69,0-1-.05s-.67-.09-1-.15-.65-.16-1-.25l-.73-.26a9.86,9.86,0,0,1-6.29-8.85c0-.1,0-.21,0-.31v-.21l-1.95-32.44L.43,7.08Z"/><path class="cls-2" d="M251.86,0l-.43,7.08L234,297.64,232,330.08v.21c0,.1,0,.21,0,.31s0,.41,0,.61l-.06.4a8.26,8.26,0,0,1-.2,1c0,.16-.08.32-.13.47a9.33,9.33,0,0,1-.34.93,7.1,7.1,0,0,1-.42.88,4.49,4.49,0,0,1-.24.42,11.06,11.06,0,0,1-.73,1.06c-.1.13-.2.25-.31.37s-.29.32-.44.47a7.3,7.3,0,0,1-.71.65,3.57,3.57,0,0,1-.38.3l-.39.28a7.93,7.93,0,0,1-.82.51l-.16.08-.28.14-.19.09a2.41,2.41,0,0,1-.33.15l-.2.08c-.21.09-.42.16-.64.23l-.47.13L224,340l-.49.08-.5.07c-.33,0-.67.05-1,.05H29.84c-.35,0-.69,0-1-.05s-.67-.09-1-.15-.65-.16-1-.25l-.73-.26a10.11,10.11,0,0,1-6.29-8.85c0-.1,0-.21,0-.31v-.21l-1.95-32.44L.43,7.08,0,0Z"/><path class="cls-3" d="M251.86,0l-.43,7.08L234,297.64,232,330.08v.21c0,.1,0,.21,0,.31s0,.41,0,.61l-.06.4a8.26,8.26,0,0,1-.2,1c0,.16-.08.32-.13.47a9.33,9.33,0,0,1-.34.93,7.1,7.1,0,0,1-.42.88,4.49,4.49,0,0,1-.24.42,11.06,11.06,0,0,1-.73,1.06c-.1.13-.2.25-.31.37s-.29.32-.44.47a8.67,8.67,0,0,1-.71.65,3.57,3.57,0,0,1-.38.3l-.39.28a7.93,7.93,0,0,1-.82.51l-.16.08-.28.14-.19.09-.18.09-.15.06-.2.08c-.21.09-.42.16-.64.23l-.47.13a8.1,8.1,0,0,1-1,.2l-.5.07c-.33,0-.67.05-1,.05H163c4.71-13.29,9.35-27.47,13.75-42.52A794.24,794.24,0,0,0,199.06,198c10.3-65.28,20-135.62,21.74-191Q220.92,3.5,221,0Z"/><ellipse class="cls-4" cx="31.41" cy="121.95" rx="9.74" ry="103.04"/></g></g></svg>