<svg xmlns="http://www.w3.org/2000/svg" xmlns:xlink="http://www.w3.org/1999/xlink" viewBox="0 0 277.3 362.39"><defs><style>.cls-1{fill:#aaa8ac;}.cls-2{fill:url(#linear-gradient);}.cls-3{fill:url(#linear-gradient-2);}.cls-4{fill:url(#linear-gradient-3);}.cls-5{fill:url(#linear-gradient-4);}</style><linearGradient id="linear-gradient" x1="138.65" y1="193.06" x2="138.65" y2="197.74" gradientUnits="userSpaceOnUse"><stop offset="0" stop-color="#fff"/><stop offset="1" stop-color="#919093"/></linearGradient><linearGradient id="linear-gradient-2" x1="138.65" y1="201.56" x2="138.65" y2="206.24" xlink:href="#linear-gradient"/><linearGradient id="linear-gradient-3" x1="138.65" y1="210.06" x2="138.65" y2="214.74" xlink:href="#linear-gradient"/><linearGradient id="linear-gradient-4" x1="101.65" y1="250.33" x2="174.55" y2="250.33" gradientUnits="userSpaceOnUse"><stop offset="0" stop-color="#fff" stop-opacity="0"/><stop offset="0.52" stop-color="#fffef8" stop-opacity="0.5"/><stop offset="1" stop-color="#fff" stop-opacity="0"/></linearGradient></defs><g id="Layer_2" data-name="Layer 2"><g id="Layer_1-2" data-name="Layer 1"><path class="cls-1" d="M269,138.26,246.3,350.46v10.63a1.3,1.3,0,0,1-1.3,1.3H32.3a1.3,1.3,0,0,1-1.3-1.3V350.46L8.32,138.26Z"/><rect class="cls-1" x="3.92" y="126.86" width="3.3" height="15.9"/><rect class="cls-1" x="7.22" y="141.26" width="2.1" height="1.5"/><rect class="cls-1" x="270.08" y="126.86" width="3.3" height="15.9"/><rect class="cls-1" x="267.98" y="141.26" width="2.1" height="1.5" transform="translate(538.05 284.02) rotate(-180)"/><path class="cls-1" d="M3.92,141.29v1.47h.19C4,142.27,4,141.78,3.92,141.29Zm269.27,1.47h.19v-1.47C273.32,141.78,273.26,142.27,273.19,142.76Z"/><rect class="cls-1" x="3.92" y="128.16" width="3.91" height="1.58"/><path class="cls-1" d="M277.3,126.86c0,1,0,1.93,0,2.89h-3.88v-1.58h.91c0-.43,0-.87,0-1.3C274.3,58.57,213.45,3,138.65,3S3,58.57,3,126.86c0,.43,0,.87,0,1.3h.91v1.58H0v0c0-.95,0-1.9,0-2.86C0,56.91,62.2,0,138.65,0S277.3,56.91,277.3,126.86Z"/><rect class="cls-1" x="269.03" y="128.16" width="4.35" height="1.58"/><rect class="cls-2" x="13.84" y="193.06" width="249.61" height="4.68" rx="0.84"/><rect class="cls-3" x="14.6" y="201.56" width="248.11" height="4.68" rx="0.84"/><rect class="cls-4" x="15.44" y="210.06" width="246.42" height="4.68" rx="0.84"/><path class="cls-5" d="M176.11,250.33c-2.45,41.74-2.57,80.47-7,112.06h-61c-4.38-31.59-4-70.34-7-112.06-2.85-40.27-5.24-80-8.09-112.07h91.1C181.88,171.21,178.61,207.79,176.11,250.33Z"/></g></g></svg>