<svg xmlns="http://www.w3.org/2000/svg" viewBox="0 0 251.86 340.16"><defs><style>.cls-1{fill:#26a6df;}.cls-2{fill:#dadada;}.cls-2,.cls-3{opacity:0.25;}.cls-3{fill:#575756;}.cls-4{fill:#f6f6f6;opacity:0.6;}</style></defs><g id="Layer_2" data-name="Layer 2"><g id="Layer_1-2" data-name="Layer 1"><path class="cls-1" d="M246.75,85,234,297.64,232,330.08a10,10,0,0,1-10,10.08H29.84a10,10,0,0,1-10-10.08l-1.95-32.44L5.11,85Z"/><path class="cls-2" d="M251.86,0l-5.11,85L234,297.64,232,330.08a10,10,0,0,1-10,10.08H29.84a10,10,0,0,1-10-10.08l-1.95-32.44L5.11,85,0,0Z"/><path class="cls-3" d="M251.86,0l-5.11,85L234,297.64,232,330.08a10,10,0,0,1-10,10.08H163c4.71-13.29,9.35-27.47,13.75-42.52A794.24,794.24,0,0,0,199.06,198c5.88-37.26,11.56-76.17,15.68-113,3.42-30.47,5.75-59.53,6.24-85Z"/><ellipse class="cls-4" cx="31.41" cy="121.95" rx="9.74" ry="103.04"/></g></g></svg>