<svg xmlns="http://www.w3.org/2000/svg" viewBox="0 0 251.86 340.16"><defs><style>.cls-1{fill:#26a6df;}.cls-2{fill:#dadada;}.cls-2,.cls-3{opacity:0.25;}.cls-3{fill:#575756;}.cls-4{fill:#f6f6f6;opacity:0.6;}</style></defs><g id="Layer_2" data-name="Layer 2"><g id="Layer_1-2" data-name="Layer 1"><path class="cls-1" d="M244.19,127.56,234,297.64,232,330.08a10,10,0,0,1-10,10.08H29.84a10,10,0,0,1-10-10.08l-1.95-32.44L7.67,127.56Z"/><path class="cls-2" d="M251.86,0l-7.67,127.56L234,297.64,232,330.08a10,10,0,0,1-10,10.08H29.84a10,10,0,0,1-10-10.08l-1.95-32.44L7.67,127.56,0,0Z"/><path class="cls-3" d="M251.86,0l-7.67,127.56L234,297.64,232,330.08a10,10,0,0,1-10,10.08H163c4.71-13.29,9.35-27.47,13.75-42.52A794.24,794.24,0,0,0,199.06,198c3.65-23.15,7.23-46.95,10.4-70.48C215.63,81.89,220.27,37.18,221,0Z"/><ellipse class="cls-4" cx="31.41" cy="121.95" rx="9.74" ry="103.04"/></g></g></svg>